<svg xmlns="http://www.w3.org/2000/svg" viewBox="0 0 697.36 192"><defs><linearGradient id="a" x1="39.43" y1="152.57" x2="152.57" y2="39.43" gradientUnits="userSpaceOnUse"><stop offset="0" stop-color="#236218"/><stop offset="1" stop-color="#4ed724"/></linearGradient></defs><circle cx="96" cy="96" r="96" fill="#183317"/><circle cx="96" cy="96" r="80" fill="url(#a)"/><path d="M246.81 48a39.6 39.6 0 0 1 9 .91 50.33 50.33 0 0 1 5.84 1.65l-2.8 12.16a23.3 23.3 0 0 0-4.8-1.58 27.54 27.54 0 0 0-5.9-.61 15.27 15.27 0 0 0-6 1 9.71 9.71 0 0 0-3.89 2.86 11 11 0 0 0-2.07 4.44 25.25 25.25 0 0 0-.61 5.66v4.25h23.12v12.33h-23.09v51.35h-14.72V74.28q0-12.28 6.45-19.28t19.47-7Zm18.61 62.91a40.08 40.08 0 0 1 2.5-14.73 30.91 30.91 0 0 1 6.63-10.52 27.45 27.45 0 0 1 9.45-6.33 29.39 29.39 0 0 1 11-2.13q13.14 0 20.5 8.15t7.36 24.34c0 .81 0 1.72-.06 2.74s-.1 1.92-.18 2.73h-42q.62 7.66 5.42 11.87t13.96 4.19a45.69 45.69 0 0 0 9.79-1 40.4 40.4 0 0 0 7-2.07l2 12a24.72 24.72 0 0 1-3.35 1.28 47.44 47.44 0 0 1-4.87 1.21q-2.73.56-5.9.91a54.78 54.78 0 0 1-6.45.37 39.11 39.11 0 0 1-14.6-2.49 27.36 27.36 0 0 1-10.22-6.94 28.56 28.56 0 0 1-6-10.46 42.7 42.7 0 0 1-1.98-13.12Zm42.71-6.58a19.23 19.23 0 0 0-.85-5.77 14.05 14.05 0 0 0-2.49-4.75 11.84 11.84 0 0 0-4-3.16 12.81 12.81 0 0 0-5.66-1.16 13.18 13.18 0 0 0-6 1.28 13.76 13.76 0 0 0-4.32 3.34 15.33 15.33 0 0 0-2.74 4.75 25.39 25.39 0 0 0-1.33 5.47Zm84.69 36.14a91.27 91.27 0 0 1-24.95 3.53 37.1 37.1 0 0 1-13.5-2.31 28.09 28.09 0 0 1-10.16-6.63 29.17 29.17 0 0 1-6.45-10.47 39.93 39.93 0 0 1-2.25-13.81 46.7 46.7 0 0 1 1.88-13.68 30 30 0 0 1 5.54-10.53 24.6 24.6 0 0 1 8.88-6.75 28.92 28.92 0 0 1 12.05-2.38 27.52 27.52 0 0 1 8.15 1.1 36.59 36.59 0 0 1 6.08 2.46V50.43L392.82 48Zm-42.22-30q0 9.74 4.62 15.27t12.78 5.48a51.41 51.41 0 0 0 6-.3 40.48 40.48 0 0 0 4.07-.67v-36.5a23.1 23.1 0 0 0-5.17-2.5 20.22 20.22 0 0 0-6.87-1.15q-8 0-11.74 5.47t-3.69 14.85Zm77.99-50.3a8.45 8.45 0 0 1-2.68 6.57 9.09 9.09 0 0 1-6.33 2.43 9.24 9.24 0 0 1-6.44-2.43 8.42 8.42 0 0 1-2.68-6.57 8.56 8.56 0 0 1 2.68-6.69 9.2 9.2 0 0 1 6.44-2.48 9.05 9.05 0 0 1 6.33 2.44 8.6 8.6 0 0 1 2.68 6.73ZM427 142.42h-14.72V78.78H427ZM482.61 109q0-10-2.49-14.42t-9.31-4.44a44.07 44.07 0 0 0-5.36.36c-1.94.25-3.4.45-4.38.61v51.35h-14.72V80.85a98.57 98.57 0 0 1 11.13-2.31 92.48 92.48 0 0 1 14.52-1.1 28.86 28.86 0 0 1 10.77 1.71 21 21 0 0 1 7 4.5 28.15 28.15 0 0 1 3.4-2.07 35.16 35.16 0 0 1 4.63-2 44.44 44.44 0 0 1 5.41-1.52 28.16 28.16 0 0 1 5.78-.61 30.49 30.49 0 0 1 12.23 2.13 17.93 17.93 0 0 1 7.54 6 23.1 23.1 0 0 1 3.78 9.24 64.23 64.23 0 0 1 1 11.87v35.77h-14.67V109q0-10-2.44-14.42t-9.36-4.44a19.37 19.37 0 0 0-6.7 1.15 22 22 0 0 0-4.74 2.26A32.66 32.66 0 0 1 497 100a69.82 69.82 0 0 1 .36 7.3v35.17h-14.75Zm86.02-48.83a8.44 8.44 0 0 1-2.63 6.57 9.12 9.12 0 0 1-6.33 2.43 9.24 9.24 0 0 1-6.45-2.43 8.42 8.42 0 0 1-2.68-6.57 8.56 8.56 0 0 1 2.68-6.69 9.21 9.21 0 0 1 6.41-2.48 9.09 9.09 0 0 1 6.37 2.48 8.59 8.59 0 0 1 2.63 6.69Zm-1.58 82.25h-14.72V78.78h14.72Zm19.34-61.57a98.8 98.8 0 0 1 11.08-2.31 95.37 95.37 0 0 1 15.08-1.1 34.87 34.87 0 0 1 13 2.13 20.3 20.3 0 0 1 8.34 6 22.72 22.72 0 0 1 4.38 9.24 51.8 51.8 0 0 1 1.28 11.87v35.77h-14.71V109a47.92 47.92 0 0 0-.67-8.7 15.23 15.23 0 0 0-2.17-5.88 8.74 8.74 0 0 0-4.13-3.29 17.68 17.68 0 0 0-6.39-1 49.7 49.7 0 0 0-5.84.36c-2 .25-3.53.45-4.5.61v51.35h-14.75ZM657.45 62l14.72-2.43v19.21h22.63v12.29h-22.63V117q0 7.67 2.44 11t8.27 3.28a26.89 26.89 0 0 0 7.12-.85 45.71 45.71 0 0 0 4.93-1.58l2.43 11.68a55.37 55.37 0 0 1-6.69 2.25 36.48 36.48 0 0 1-9.74 1.16 30.7 30.7 0 0 1-11.37-1.83 16.66 16.66 0 0 1-7.24-5.29 21 21 0 0 1-3.78-8.39 52.25 52.25 0 0 1-1.09-11.26Z"/></svg>
