<svg xmlns="http://www.w3.org/2000/svg" xmlns:xlink="http://www.w3.org/1999/xlink" width="261" height="66" fill="none" viewBox="0 0 251.22 66">
  <symbol id="logo-symbol-wordmark">
    <defs>
      <linearGradient id="a" x1="59.9" x2="100.74" y1="-275.42" y2="-234.58" gradientTransform="matrix(1 0 0 -1 -47.32 -222)" gradientUnits="userSpaceOnUse">
        <stop offset="0" stop-color="#087857"/>
        <stop offset="1" stop-color="#1ab680"/>
      </linearGradient>
    </defs>
    <circle cx="33" cy="33" r="33" fill="#084e3b"/>
    <circle cx="33" cy="33" r="28.87" fill="url(#a)"/>
    <path fill="currentColor" d="M89.67 48.91c-1.83 0-2.75-.93-2.75-2.8V31.27h-2c-1.46 0-2.19-.68-2.19-2.06s.73-2.05 2.19-2.05h2v-.05c0-3 .76-5.26 2.27-6.76a10.35 10.35 0 0 1 6.56-2.65l1.49-.13a1.93 1.93 0 0 1 1.66.48 2.08 2.08 0 0 1 .55 1.38 2.39 2.39 0 0 1-.45 1.44 1.66 1.66 0 0 1-1.27.73h-.61a5.73 5.73 0 0 0-3.63 1.27 4.42 4.42 0 0 0-1.14 3.33v.92h3.75c1.46 0 2.19.68 2.19 2.05s-.73 2.06-2.19 2.06h-3.72v14.88c0 1.89-.9 2.8-2.71 2.8Zm21.7.09a13.42 13.42 0 0 1-6.26-1.36 9.57 9.57 0 0 1-4-3.85 11.7 11.7 0 0 1-1.42-5.91 11.81 11.81 0 0 1 1.31-5.82 10.18 10.18 0 0 1 3.81-3.92 10.71 10.71 0 0 1 5.53-1.42 9.25 9.25 0 0 1 7.19 2.89 11.18 11.18 0 0 1 2.65 7.88q0 1.62-2.1 1.62h-13.19q.61 5.73 6.56 5.73a13.12 13.12 0 0 0 2.56-.28 9.27 9.27 0 0 0 2.69-1 2.47 2.47 0 0 1 1.93-.41 1.72 1.72 0 0 1 1.11.94 2.15 2.15 0 0 1 .09 1.55 2.6 2.6 0 0 1-1.25 1.47 11.45 11.45 0 0 1-3.52 1.42 16.31 16.31 0 0 1-3.69.47Zm-.79-18.56a5.25 5.25 0 0 0-3.89 1.49 6.59 6.59 0 0 0-1.8 4h10.76a6.6 6.6 0 0 0-1.46-4.09 4.63 4.63 0 0 0-3.61-1.4ZM132.75 49a8.87 8.87 0 0 1-4.92-1.36 9 9 0 0 1-3.3-3.87 13.82 13.82 0 0 1-1.18-5.93 13.58 13.58 0 0 1 1.18-5.93 9.06 9.06 0 0 1 3.3-3.83 8.87 8.87 0 0 1 4.92-1.36 8.39 8.39 0 0 1 4.11 1 6.86 6.86 0 0 1 2.76 2.68V20.11c0-1.84.9-2.76 2.71-2.76a2.44 2.44 0 0 1 2.75 2.76v26c0 1.87-.9 2.8-2.71 2.8s-2.71-.93-2.71-2.8v-.92A6.66 6.66 0 0 1 136.9 48a8.27 8.27 0 0 1-4.15 1Zm1.53-4.16a4.9 4.9 0 0 0 3.94-1.77 8 8 0 0 0 1.48-5.23 7.85 7.85 0 0 0-1.48-5.23 5.35 5.35 0 0 0-7.88 0 7.85 7.85 0 0 0-1.48 5.23 8 8 0 0 0 1.48 5.23 4.91 4.91 0 0 0 3.94 1.77Zm19.2-22.06a3.42 3.42 0 0 1-2.38-.78 2.71 2.71 0 0 1-.86-2.12 2.71 2.71 0 0 1 .86-2.15 3.51 3.51 0 0 1 2.38-.74q3.24 0 3.24 2.89t-3.24 2.9Zm0 26.09a2.51 2.51 0 0 1-2-.79 3.15 3.15 0 0 1-.7-2.19V29.83c0-2 .9-3 2.71-3s2.75 1 2.75 3v16.06a3.15 3.15 0 0 1-.7 2.19 2.57 2.57 0 0 1-2.06.79Zm11.24.04c-1.81 0-2.71-.93-2.71-2.8V29.56c0-1.84.88-2.75 2.66-2.75s2.67.91 2.67 2.75v.88A7 7 0 0 1 170 27.7a7.81 7.81 0 0 1 3.94-1q4.8 0 6.29 4.2a7.49 7.49 0 0 1 2.89-3.09 8.25 8.25 0 0 1 4.28-1.11q7.23 0 7.22 8.8v10.61c0 1.87-.92 2.8-2.75 2.8s-2.72-.93-2.72-2.8V35.74a6.27 6.27 0 0 0-.81-3.59 3.11 3.11 0 0 0-2.72-1.15 4.1 4.1 0 0 0-3.37 1.51A6.5 6.5 0 0 0 181 36.7v9.41c0 1.87-.9 2.8-2.71 2.8s-2.76-.93-2.76-2.8V35.74a6.27 6.27 0 0 0-.81-3.59 3.06 3.06 0 0 0-2.66-1.15 4.08 4.08 0 0 0-3.36 1.51 6.45 6.45 0 0 0-1.23 4.18v9.41c0 1.9-.92 2.81-2.75 2.81ZM203 22.78a3.44 3.44 0 0 1-2.4-.78 2.7 2.7 0 0 1-.85-2.12 2.71 2.71 0 0 1 .85-2.15A3.53 3.53 0 0 1 203 17q3.24 0 3.24 2.89T203 22.78Zm0 26.09a2.54 2.54 0 0 1-2-.79 3.2 3.2 0 0 1-.7-2.19V29.83c0-2 .91-3 2.71-3s2.76 1 2.76 3v16.06a3.2 3.2 0 0 1-.7 2.19 2.6 2.6 0 0 1-2.07.79Zm11.13.04c-1.8 0-2.71-.93-2.71-2.8V29.56c0-1.84.89-2.75 2.67-2.75s2.67.91 2.67 2.75v.92a7.29 7.29 0 0 1 3-2.8 9 9 0 0 1 4.18-1q7.56 0 7.56 8.8v10.63c0 1.87-.9 2.8-2.71 2.8S226 48 226 46.11V35.78a5.72 5.72 0 0 0-.94-3.63 3.56 3.56 0 0 0-2.92-1.15 5 5 0 0 0-3.83 1.51 5.59 5.59 0 0 0-1.42 4v9.59c0 1.9-.89 2.81-2.76 2.81Zm32.67.09q-8.48 0-8.48-8.4v-9.33h-2.27c-1.46 0-2.19-.68-2.19-2.06s.73-2.05 2.19-2.05h2.27v-4a2.74 2.74 0 1 1 5.47 0v4h4.63c1.46 0 2.19.68 2.19 2.05s-.73 2.06-2.19 2.06h-4.63v9a4.68 4.68 0 0 0 .91 3.15 3.79 3.79 0 0 0 3 1.05 5.75 5.75 0 0 0 1.31-.13 7.77 7.77 0 0 1 1-.18 1.06 1.06 0 0 1 .87.33 2.32 2.32 0 0 1 .35 1.51 4 4 0 0 1-.28 1.56 1.69 1.69 0 0 1-1 .94c-.38.11-.88.22-1.49.33a10.15 10.15 0 0 1-1.66.17Z"/>
  </symbol>
  <use xlink:href="#logo-symbol-wordmark" color="#fff"/>
</svg>
